<svg width="128" height="128" viewBox="0 0 128 128" fill="none" xmlns="http://www.w3.org/2000/svg">
<rect width="128" height="128" fill="#CC4202"/>
<path d="M19.3867 52.8762C18.0316 52.8762 16.8818 52.4039 15.9373 51.4595C14.9929 50.515 14.5206 49.3652 14.5206 48.0101C14.5206 46.655 14.9929 45.5052 15.9373 44.5608C16.8818 43.5753 18.0316 43.0825 19.3867 43.0825C20.7418 43.0825 21.8916 43.5753 22.836 44.5608C23.8215 45.5052 24.3143 46.655 24.3143 48.0101C24.3143 49.3652 23.8215 50.515 22.836 51.4595C21.8916 52.4039 20.7418 52.8762 19.3867 52.8762ZM15.1982 87.3696C13.2271 87.3696 11.6257 86.7536 10.3938 85.5217C9.20291 84.2898 8.60749 82.4419 8.60749 79.9781C8.60749 78.9515 8.77175 77.617 9.10025 75.9744L13.2887 56.2023H22.1585L17.7236 77.1447C17.5594 77.7607 17.4772 78.4177 17.4772 79.1158C17.4772 79.9371 17.662 80.5325 18.0316 80.9021C18.4422 81.2306 19.0992 81.3948 20.0026 81.3948C20.7418 81.3948 21.3988 81.2716 21.9737 81.0252C21.8094 83.0784 21.0703 84.6594 19.7563 85.7681C18.4833 86.8357 16.9639 87.3696 15.1982 87.3696ZM41.7448 44.684C38.624 45.7106 36.2013 47.4147 34.4766 49.7964C32.793 52.137 31.9512 55.0525 31.9512 58.5429C31.9512 60.1034 32.0949 61.171 32.3823 61.7459C32.6698 62.3208 32.8135 62.6698 32.8135 62.793C28.4197 62.793 26.2228 60.9246 26.2228 57.1878C26.2228 54.6419 27.1878 52.096 29.1178 49.55C31.0888 46.963 33.5937 44.8688 36.6324 43.2673C39.7122 41.6247 42.7714 40.8035 45.8101 40.8035C47.3295 40.8035 48.8899 41.0909 50.4914 41.6658L49.0747 74.1266L62.6257 41.6658H71.4954L65.0279 87H56.1582L60.1003 59.3437L48.5203 87H40.0818L41.3137 59.2205L31.0272 87H26.0996L41.7448 44.684ZM77.8465 87.3696C75.5058 87.3696 73.5553 86.5688 71.9949 84.9674C70.4345 83.3659 69.6543 80.861 69.6543 77.4527C69.6543 74.414 70.2497 71.2316 71.4405 67.9054C72.6725 64.5382 74.4793 61.7048 76.8609 59.4053C79.2837 57.0646 82.1581 55.8943 85.4843 55.8943C87.1679 55.8943 88.4203 56.1818 89.2416 56.7567C90.0629 57.3316 90.4735 58.0912 90.4735 59.0357V59.4669L91.1511 56.2023H100.021L95.5859 77.1447C95.4217 77.7607 95.3396 78.4177 95.3396 79.1158C95.3396 80.8815 96.1814 81.7644 97.865 81.7644C99.0147 81.7644 100 81.2306 100.822 80.1629C101.684 79.0953 102.361 77.6991 102.854 75.9744H105.441C103.922 80.4093 102.033 83.4275 99.7744 85.0289C97.557 86.5894 95.319 87.3696 93.0605 87.3696C91.3359 87.3696 89.9397 86.8973 88.872 85.9529C87.8454 84.9674 87.2295 83.5507 87.0242 81.7028C85.8333 83.3864 84.4988 84.762 83.0205 85.8297C81.5833 86.8563 79.8586 87.3696 77.8465 87.3696ZM81.8502 81.3948C82.8768 81.3948 83.8828 80.9226 84.8683 79.9781C85.8949 78.9926 86.593 77.658 86.9626 75.9744L89.9192 62.0539C89.9192 61.52 89.7138 61.0068 89.3032 60.514C88.8926 59.9802 88.2561 59.7132 87.3937 59.7132C85.7512 59.7132 84.2729 60.6782 82.9589 62.6082C81.6448 64.4972 80.6183 66.7967 79.8791 69.5069C79.14 72.176 78.7704 74.5372 78.7704 76.5904C78.7704 78.6436 79.0578 79.9576 79.6327 80.5325C80.2487 81.1074 80.9878 81.3948 81.8502 81.3948ZM108.667 87.3696C106.573 87.3696 105.012 86.7331 103.986 85.4601C103 84.1871 102.507 82.5035 102.507 80.4093C102.507 79.3416 102.63 78.2535 102.877 77.1447L106.819 58.6661H104.786L105.279 56.2023H107.312L109.16 47.7022L118.276 46.4702C117.906 48.0307 117.701 48.9546 117.66 49.242C117.372 50.3918 116.879 52.7119 116.181 56.2023H119.877L119.384 58.6661H115.689L111.747 77.1447C111.541 78.0481 111.439 78.7668 111.439 79.3006C111.439 80.7789 112.157 81.518 113.594 81.518C114.334 81.518 114.867 81.4564 115.196 81.3332C114.375 83.7149 113.41 85.3164 112.301 86.1377C111.192 86.9589 109.981 87.3696 108.667 87.3696Z" fill="white"/>
</svg>
