<svg width="128" height="128" viewBox="0 0 128 128" fill="none" xmlns="http://www.w3.org/2000/svg">
<path d="M49.088 24.064C42.6027 26.1973 37.568 29.7387 33.984 34.688C30.4853 39.552 28.736 45.6107 28.736 52.864C28.736 56.1067 29.0347 58.3253 29.632 59.52C30.2293 60.7147 30.528 61.44 30.528 61.696C21.3973 61.696 16.832 57.8133 16.832 50.048C16.832 44.7573 18.8373 39.4667 22.848 34.176C26.944 28.8 32.1493 24.448 38.464 21.12C44.864 17.7067 51.2213 16 57.536 16C60.6933 16 63.936 16.5973 67.264 17.792L64.32 85.248L92.48 17.792H110.912L97.472 112H79.04L87.232 54.528L63.168 112H45.632L48.192 54.272L26.816 112H16.576L49.088 24.064Z" fill="#CC4202"/>
</svg>
